<!--?xml version="1.0" encoding="iso-8859-1"?-->
<!-- Generator: Adobe Illustrator 22.1.0, SVG Export Plug-In . SVG Version: 6.00 Build 0)  -->
<svg version="1.1" id="_x34_" xmlns="http://www.w3.org/2000/svg" xmlns:xlink="http://www.w3.org/1999/xlink" x="0px" y="0px" viewBox="0 0 512 341.6" style="opacity: 1; width: 256px;" xml:space="preserve">
<style type="text/css">
	.st0{fill:#E61F19;}
	.st1{fill:#FFFFFF;}
	.st2{opacity:5.000000e-02;fill:#040000;}
</style>
<g>
	<path class="st0" d="M453,332.8c-131.3,11.8-262.6,11.8-394,0c-24.4-2.2-44.3-20.4-48.6-44.5c-13.9-78.7-13.9-156.4,0-235
		C14.7,29.2,34.7,11,59,8.8c131.3-11.8,262.6-11.8,394,0c24.4,2.2,44.3,20.4,48.6,44.5c13.9,78.7,13.9,156.4,0,235
		C497.3,312.4,477.3,330.6,453,332.8z"></path>
	<path class="st1" d="M335,158.3L222,93c-5.9-3.4-13.3,0.9-13.3,7.7v130.5c0,6.8,7.4,11.1,13.3,7.7l113-65.2
		C340.9,170.3,340.9,161.7,335,158.3z"></path>
	<path class="st2" d="M346.9,167.9l-7.8-4.5c-0.5-2.2-1.9-4.3-4.2-5.6l-8.5-4.9c-0.5,0.5-1.1,1-1.9,1.4l-113,65.2
		c-1,0.5-1.9,0.9-3,1.1v10.1c0,6.8,7.4,11.1,13.3,7.7l113-65.2c2.8-1.6,4.2-4.4,4.4-7.2c0.2,3.2-1.2,6.5-4.4,8.3l-113,65.3
		c-0.4,0.3-0.9,0.5-1.4,0.6v0.6c0,6.8,7.4,11.1,13.3,7.7l113-65.2C352.9,179.9,352.9,171.3,346.9,167.9z"></path>
</g>
</svg>
